<svg xmlns="http://www.w3.org/2000/svg" width="15.227" height="13.535" viewBox="0 0 15.227 13.535">
    <g>
        <path fill="#535353" d="M12.692 5.076H9.671L6.892.213A.423.423 0 0 0 6.525 0H4.793a.423.423 0 0 0-.407.539l1.3 4.537H2.963L1.821 3.553a.423.423 0 0 0-.338-.169H.426a.423.423 0 0 0-.41.526l.833 2.858-.833 2.858a.423.423 0 0 0 .41.526h1.057a.423.423 0 0 0 .338-.169L2.963 8.46h2.72L4.387 13a.423.423 0 0 0 .407.539h1.731a.423.423 0 0 0 .367-.213L9.671 8.46h3.021c.935 0 2.538-.757 2.538-1.692s-1.603-1.692-2.538-1.692z" transform="translate(-.003)"/>
    </g>
</svg>
