<svg xmlns="http://www.w3.org/2000/svg" id="_81_Edit" width="27.128" height="27.128" viewBox="0 0 27.128 27.128">
    <defs>
        <style>
            .cls-1{fill:#d2d2d2}
        </style>
    </defs>
    <path id="패스_26" d="M24 29.5H6A3.5 3.5 0 0 1 2.5 26V8A3.5 3.5 0 0 1 6 4.5h9a1.5 1.5 0 0 1 0 3H6a.5.5 0 0 0-.5.5v18a.5.5 0 0 0 .5.5h18a.5.5 0 0 0 .5-.5v-9a1.5 1.5 0 0 1 3 0v9a3.5 3.5 0 0 1-3.5 3.5z" class="cls-1" transform="translate(-2.5 -2.372)"/>
    <path id="패스_27" d="M12 21.5a1.5 1.5 0 0 1-1.49-1.69l.56-4.36a1.52 1.52 0 0 1 .42-.87L22.35 3.73a4.19 4.19 0 1 1 5.92 5.92L17.42 20.51a1.52 1.52 0 0 1-.87.42l-4.36.56zm4.36-2.05zM14 16.34l-.25 1.93 1.91-.27L26.15 7.53a1.18 1.18 0 0 0 0-1.68 1.21 1.21 0 0 0-1.68 0z" class="cls-1" transform="translate(-2.5 -2.372)"/>
</svg>
