<svg xmlns="http://www.w3.org/2000/svg" width="89" height="45.15" viewBox="0 0 89 45.15">
    <g fill="#535353">
        <text stroke="rgba(0,0,0,0)" font-family="NotoSansKR-Medium, Noto Sans KR" font-size="15px" font-weight="500" transform="translate(-824 -750.85) translate(825 790)">
            <tspan x="0" y="0">비공개 포스트</tspan>
        </text>
        <path d="M9.765 1.757L10 1.75a3.85 3.85 0 0 1 3.843 3.615l.007.235v.7h1.05A2.1 2.1 0 0 1 17 8.4v8.4a2.1 2.1 0 0 1-2.1 2.1H5.1A2.1 2.1 0 0 1 3 16.8V8.4a2.1 2.1 0 0 1 2.1-2.1h1.05v-.7a3.85 3.85 0 0 1 3.615-3.843L10 1.75zM10 11.2a1.4 1.4 0 1 0 1.4 1.4 1.4 1.4 0 0 0-1.4-1.4zm.179-7.341L10 3.85a1.75 1.75 0 0 0-1.741 1.571L8.25 5.6v.7h3.5v-.7a1.75 1.75 0 0 0-1.571-1.741L10 3.85z" transform="translate(-824 -750.85) translate(858 749.1)"/>
    </g>
</svg>
