<svg xmlns="http://www.w3.org/2000/svg" width="18.273" height="10.964" viewBox="0 0 18.273 10.964">
    <path fill="#535353" d="M5.025 69.482A2.284 2.284 0 1 0 2.741 67.2a2.287 2.287 0 0 0 2.284 2.282zm10.05-3.655H8.68a.457.457 0 0 0-.457.457V70.4h-6.4v-5.943A.457.457 0 0 0 1.37 64H.457a.457.457 0 0 0-.457.457v10.05a.457.457 0 0 0 .457.457h.913a.457.457 0 0 0 .457-.457v-1.37h14.618v1.37a.457.457 0 0 0 .457.457h.914a.457.457 0 0 0 .457-.457v-5.482a3.2 3.2 0 0 0-3.198-3.198z" transform="translate(0 -64)"/>
</svg>
