<svg xmlns="http://www.w3.org/2000/svg" width="10.659" height="13.119" viewBox="0 0 10.659 13.119">
    <path fill="#535353" d="M5.327.388a31.328 31.328 0 0 1 .413 3.3 2.7 2.7 0 0 1-1.765 2.68l.331 6.1a.617.617 0 0 1-.615.648H2.05a.617.617 0 0 1-.615-.648l.331-6.1A2.7 2.7 0 0 1 0 3.688a31.235 31.235 0 0 1 .413-3.3c.082-.52 1.16-.528 1.227.028v3.618c.033.087.387.082.41 0 .036-.648.2-3.567.2-3.633C2.339-.132 3.4-.132 3.482.4c.005.069.169 2.985.2 3.633.023.082.379.087.41 0V.416c.072-.553 1.153-.548 1.235-.028zm3.054 7.32L8 12.451a.615.615 0 0 0 .612.666h1.435a.613.613 0 0 0 .615-.615V.614A.615.615 0 0 0 10.044 0C7.93 0 4.371 4.572 8.381 7.709z" transform="translate(0 .001)"/>
</svg>
