<svg xmlns="http://www.w3.org/2000/svg" width="19" height="14" viewBox="0 0 19 14">
    <defs>
        <clipPath id="dsupmwgt1a">
            <path fill="none" d="M-4 0H15V14H-4z"/>
        </clipPath>
    </defs>
    <g transform="translate(4)" style="isolation:isolate" clip-path="url(#dsupmwgt1a)">
        <g>
            <path fill="#535353" d="M5.38.682a31.328 31.328 0 0 1 .413 3.3 2.7 2.7 0 0 1-1.765 2.68l.331 6.1a.617.617 0 0 1-.615.648H2.1a.617.617 0 0 1-.615-.648l.331-6.1A2.7 2.7 0 0 1 .053 3.983 31.235 31.235 0 0 1 .465.682C.547.162 1.626.155 1.693.711v3.618c.033.087.387.082.41 0 .036-.648.2-3.567.2-3.633C2.392.162 3.453.162 3.535.7c.005.069.169 2.985.2 3.633.023.082.379.087.41 0V.711C4.217.157 5.3.162 5.38.682zM8.434 8l-.384 4.746a.615.615 0 0 0 .612.666H10.1a.613.613 0 0 0 .615-.615V.908A.615.615 0 0 0 10.1.293C7.983.293 4.424 4.867 8.434 8z" transform="translate(.053 .294) translate(-.053 -.293)"/>
        </g>
    </g>
</svg>
