<svg xmlns="http://www.w3.org/2000/svg" width="19" height="14" viewBox="0 0 19 14">
    <defs>
        <clipPath id="i2ecbp2m7a">
            <path fill="none" d="M-3 -1H16V13H-3z"/>
        </clipPath>
    </defs>
    <g transform="translate(3 1)" style="isolation:isolate" clip-path="url(#i2ecbp2m7a)">
        <g>
            <path fill="#535353" d="M13.045 1.56L6.772-.851a.855.855 0 0 0-.6 0L-.1 1.56a.428.428 0 0 0-.278.4v.988a.428.428 0 0 0 .428.428h12.845a.428.428 0 0 0 .428-.428v-.987a.428.428 0 0 0-.278-.401zM1.332 4.233v4.283H.9a.428.428 0 0 0-.428.428v1.285h11.995V8.944a.428.428 0 0 0-.428-.428h-.429V4.233H9.9v4.283H7.327V4.233H5.614v4.283H3.045V4.233zm11.563 6.852H.047a.428.428 0 0 0-.428.428v.857a.428.428 0 0 0 .428.428h12.848a.428.428 0 0 0 .428-.428v-.857a.428.428 0 0 0-.428-.427z" transform="translate(-.381 -.906) translate(.381 .906)"/>
        </g>
    </g>
</svg>
