<svg xmlns="http://www.w3.org/2000/svg" width="19" height="14" viewBox="0 0 19 14">
    <defs>
        <clipPath id="a2o5odylca">
            <path fill="none" d="M-2 0H17V14H-2z"/>
        </clipPath>
    </defs>
    <g transform="translate(2)" style="isolation:isolate" clip-path="url(#a2o5odylca)">
        <g>
            <path fill="#535353" d="M12.718 5.267H9.7L6.918.4a.423.423 0 0 0-.367-.209H4.819a.423.423 0 0 0-.406.539l1.3 4.537H2.989L1.847 3.744a.423.423 0 0 0-.338-.169H.452a.423.423 0 0 0-.41.526l.833 2.857-.833 2.859a.423.423 0 0 0 .41.526h1.057a.423.423 0 0 0 .338-.169L2.989 8.65h2.72l-1.3 4.536a.423.423 0 0 0 .407.539h1.735a.423.423 0 0 0 .367-.213L9.7 8.65h3.021c.935 0 2.538-.757 2.538-1.692s-1.606-1.691-2.541-1.691z" transform="translate(.026 .191) translate(-.029 -.191)"/>
        </g>
    </g>
</svg>
