<svg xmlns="http://www.w3.org/2000/svg" width="19" height="14" viewBox="0 0 19 14">
    <defs>
        <clipPath id="7awneucjda">
            <path fill="none" d="M0 -2H19V12H0z"/>
        </clipPath>
    </defs>
    <g transform="translate(0 2)" style="isolation:isolate" clip-path="url(#7awneucjda)">
        <g>
            <path fill="#535353" d="M5.371 69.342a2.284 2.284 0 1 0-2.284-2.284 2.287 2.287 0 0 0 2.284 2.284zm10.05-3.655h-6.4a.457.457 0 0 0-.457.457v4.111h-6.4v-5.938a.457.457 0 0 0-.457-.457H.8a.457.457 0 0 0-.457.457v10.05a.457.457 0 0 0 .457.457h.914a.457.457 0 0 0 .457-.457V73h14.62v1.37a.457.457 0 0 0 .457.457h.914a.457.457 0 0 0 .457-.457v-5.485a3.2 3.2 0 0 0-3.198-3.197z" transform="translate(.346 -.14) translate(-.346 -63.86)"/>
        </g>
    </g>
</svg>
