<svg xmlns="http://www.w3.org/2000/svg" width="13.705" height="13.705" viewBox="0 0 13.705 13.705">
    <path fill="#535353" d="M13.427 2.466L7.153.055a.855.855 0 0 0-.6 0L.278 2.466a.428.428 0 0 0-.278.4v.988a.428.428 0 0 0 .428.428h12.848a.428.428 0 0 0 .428-.428v-.988a.428.428 0 0 0-.277-.4zM1.713 5.139v4.283h-.428a.428.428 0 0 0-.428.428v1.285h11.991V9.85a.428.428 0 0 0-.428-.428h-.428V5.139h-1.714v4.283H7.709V5.139H6v4.283H3.426V5.139zm11.563 6.852H.428A.428.428 0 0 0 0 12.42v.857a.428.428 0 0 0 .428.428h12.848a.428.428 0 0 0 .428-.428v-.857a.428.428 0 0 0-.428-.428z"/>
</svg>
