<svg xmlns="http://www.w3.org/2000/svg" width="9" height="8.759" viewBox="0 0 9 8.759">
    <path fill="#ef9f00" d="M2.876 7.03l1.748 1.6-.486 2.233a.692.692 0 0 0 .291.728.551.551 0 0 0 .388.146.616.616 0 0 0 .291-.049.048.048 0 0 0 .049-.049l1.991-1.117 1.991 1.117a.048.048 0 0 1 .049.049.769.769 0 0 0 .728-.049.692.692 0 0 0 .291-.728l-.485-2.23a9.356 9.356 0 0 0 .777-.728l.923-.825.049-.049a.678.678 0 0 0 .146-.728.752.752 0 0 0-.583-.486h-.049L8.7 5.622l-.92-2.088a.048.048 0 0 0-.049-.049A.524.524 0 0 0 7.2 3a.758.758 0 0 0-.631.388.048.048 0 0 1-.049.049l-.925 2.088-2.282.243h-.049a.836.836 0 0 0-.583.486.873.873 0 0 0 .195.776z" transform="translate(-2.664 -3)"/>
</svg>
