<svg xmlns="http://www.w3.org/2000/svg" width="19" height="14" viewBox="0 0 19 14">
    <defs>
        <clipPath id="49ei273i7a">
            <path fill="none" d="M-3 0H16V14H-3z"/>
        </clipPath>
    </defs>
    <g transform="translate(3)" style="isolation:isolate" clip-path="url(#49ei273i7a)">
        <path fill="#535353" d="M9.571 4.351v-.87a3.481 3.481 0 0 0-6.961 0v.87H0v7.4a2.175 2.175 0 0 0 2.175 2.175h7.831a2.175 2.175 0 0 0 2.175-2.175v-7.4zm-5.221-.87a1.74 1.74 0 0 1 3.481 0v.87h-3.48zM8.7 6.744a.653.653 0 1 1 .653-.653.653.653 0 0 1-.653.653zm-5.221 0a.653.653 0 1 1 .653-.653.653.653 0 0 1-.651.653z"/>
    </g>
</svg>
