<svg xmlns="http://www.w3.org/2000/svg" width="11.187" height="18.906" viewBox="0 0 11.187 18.906">
    <defs>
        <clipPath id="3t96cxurda">
            <path fill="#ef9f00" stroke="#707070" d="M0 0H11.187V18.906H0z"/>
        </clipPath>
    </defs>
    <g clip-path="url(#3t96cxurda)">
        <path fill="#ef9f00" stroke="#ef9f00" d="M3.038 10.127l3.092 2.834-.859 3.95a1.225 1.225 0 0 0 .515 1.289.975.975 0 0 0 .687.258 1.089 1.089 0 0 0 .515-.086.084.084 0 0 0 .086-.086L10.6 16.31l3.521 1.975a.084.084 0 0 1 .086.086 1.36 1.36 0 0 0 1.288-.086 1.225 1.225 0 0 0 .51-1.285l-.859-3.95a16.547 16.547 0 0 0 1.374-1.288l1.632-1.46.086-.086a1.2 1.2 0 0 0 .262-1.291 1.33 1.33 0 0 0-1.03-.859h-.086l-4.036-.429-1.637-3.692a.084.084 0 0 0-.086-.086.926.926 0 0 0-.944-.859 1.34 1.34 0 0 0-1.116.687.084.084 0 0 1-.086.086L7.847 7.465l-4.036.429h-.086a1.479 1.479 0 0 0-1.03.859 1.544 1.544 0 0 0 .343 1.374z" transform="translate(.573 -.932)"/>
    </g>
</svg>
