<svg xmlns="http://www.w3.org/2000/svg" width="17.511" height="17.06" viewBox="0 0 17.511 17.06">
    <path fill="#fff" stroke="#ef9f00" d="M3.052 10.381l3.2 2.935-.889 4.091A1.268 1.268 0 0 0 5.9 18.74a1.01 1.01 0 0 0 .711.267 1.128 1.128 0 0 0 .534-.089.087.087 0 0 0 .089-.089l3.646-2.045 3.646 2.045a.087.087 0 0 1 .089.089 1.408 1.408 0 0 0 1.334-.089 1.268 1.268 0 0 0 .534-1.334L15.59 13.4a17.135 17.135 0 0 0 1.423-1.334l1.69-1.512.089-.089a1.242 1.242 0 0 0 .267-1.334 1.377 1.377 0 0 0-1.067-.889H17.9L13.723 7.8l-1.69-3.824a.087.087 0 0 0-.089-.089.959.959 0 0 0-.978-.887 1.388 1.388 0 0 0-1.156.711.087.087 0 0 1-.089.089l-1.69 3.824-4.179.445h-.089a1.531 1.531 0 0 0-1.063.889 1.6 1.6 0 0 0 .352 1.423z" transform="translate(-2.16 -2.5)"/>
</svg>
