<svg xmlns="http://www.w3.org/2000/svg" width="14" height="14" viewBox="0 0 14 14">
    <path fill="#535353" d="M13.344 3.5h-.219V2.187C13.125.962 10.412 0 7 0S.875.962.875 2.187V3.5H.656A.656.656 0 0 0 0 4.156v2.188A.656.656 0 0 0 .656 7h.219v4.375a.875.875 0 0 0 .875.875v.875a.875.875 0 0 0 .875.875H3.5a.875.875 0 0 0 .875-.875v-.875h5.25v.875A.875.875 0 0 0 10.5 14h.875a.875.875 0 0 0 .875-.875v-.875h.175a.69.69 0 0 0 .7-.7V7h.219A.656.656 0 0 0 14 6.344V4.156a.656.656 0 0 0-.656-.656zM3.063 10.937a.875.875 0 1 1 .875-.875.875.875 0 0 1-.875.875zM3.5 7.875A.875.875 0 0 1 2.625 7V3.5a.875.875 0 0 1 .875-.875h7a.875.875 0 0 1 .875.875V7a.875.875 0 0 1-.875.875zm7.438 3.062a.875.875 0 1 1 .875-.875.875.875 0 0 1-.875.875z"/>
</svg>
