<svg xmlns="http://www.w3.org/2000/svg" width="19" height="14" viewBox="0 0 19 14">
    <defs>
        <clipPath id="3l461u16pa">
            <path fill="none" d="M-3 -1H16V13H-3z"/>
        </clipPath>
    </defs>
    <g transform="translate(3 1)" style="isolation:isolate" clip-path="url(#3l461u16pa)">
        <path fill="#535353" d="M12.1 3.174h-.2V1.983C11.9.873 9.441 0 6.347 0S.793.873.793 1.983v1.19H.6a.6.6 0 0 0-.6.6v1.979a.6.6 0 0 0 .6.6h.2v3.967a.793.793 0 0 0 .793.793v.788a.793.793 0 0 0 .793.793h.793a.793.793 0 0 0 .793-.793v-.793h4.76v.793a.793.793 0 0 0 .793.793h.793a.793.793 0 0 0 .793-.793v-.793h.159a.626.626 0 0 0 .635-.635V6.347h.2a.6.6 0 0 0 .6-.6V3.769a.6.6 0 0 0-.605-.595zM2.777 9.917a.793.793 0 1 1 .793-.793.793.793 0 0 1-.793.793zm.4-2.777a.793.793 0 0 1-.793-.793V3.174a.793.793 0 0 1 .793-.793h6.344a.793.793 0 0 1 .793.793v3.173a.793.793 0 0 1-.793.793zm6.74 2.777a.793.793 0 1 1 .793-.793.793.793 0 0 1-.793.793z"/>
    </g>
</svg>
